<svg width="50" height="50" viewBox="0 0 50 50" fill="none" xmlns="http://www.w3.org/2000/svg">
<path d="M25 48C37.7025 48 48 37.7025 48 25C48 12.2975 37.7025 2 25 2C12.2975 2 2 12.2975 2 25C2 37.7025 12.2975 48 25 48Z" fill="white"/>
<path d="M25 48C37.7025 48 48 37.7025 48 25C48 12.2975 37.7025 2 25 2C12.2975 2 2 12.2975 2 25C2 37.7025 12.2975 48 25 48Z" stroke="black" stroke-opacity="0.2" stroke-width="3"/>
<path d="M25 48C37.7025 48 48 37.7025 48 25C48 12.2975 37.7025 2 25 2C12.2975 2 2 12.2975 2 25C2 37.7025 12.2975 48 25 48Z" stroke="#009DDE" stroke-width="3"/>
<path d="M25 35.1068C30.5818 35.1068 35.1066 30.5819 35.1066 25.0002C35.1066 19.4184 30.5818 14.8936 25 14.8936C19.4183 14.8936 14.8934 19.4184 14.8934 25.0002C14.8934 30.5819 19.4183 35.1068 25 35.1068Z" fill="#FF9903"/>
</svg>
