<svg width="165" height="40" viewBox="0 0 165 40" fill="none" xmlns="http://www.w3.org/2000/svg">
<path fill-rule="evenodd" clip-rule="evenodd" d="M15.4996 0C16.2669 2.87316 18.752 5.4375 21.4372 8.09818L22.0068 8.6614C26.2505 12.8566 31 17.6223 31 24.7332C30.9821 28.7883 29.3412 32.6713 26.4364 35.5325C23.5315 38.3937 19.5992 40 15.5 40C11.4008 40 7.46852 38.3937 4.56364 35.5325C1.65877 32.6713 0.0178597 28.7883 0 24.7332C0 17.7655 4.56001 13.0499 8.73487 8.91638L9.1209 8.5345C11.9705 5.71664 14.6901 3.03005 15.4996 0Z" fill="#009DDE"/>
<path d="M15.5 36C21.8513 36 27 30.8513 27 24.5C27 18.1487 21.8513 13 15.5 13C9.14873 13 4 18.1487 4 24.5C4 30.8513 9.14873 36 15.5 36Z" fill="white" stroke="black" stroke-opacity="0.2" stroke-width="0.431842"/>
<path d="M15.5 29.5533C18.2908 29.5533 20.5533 27.2908 20.5533 24.5C20.5533 21.7091 18.2908 19.4467 15.5 19.4467C12.7091 19.4467 10.4467 21.7091 10.4467 24.5C10.4467 27.2908 12.7091 29.5533 15.5 29.5533Z" fill="#FF9903"/>
<path d="M97.2012 25.6844L99.9775 17.4207H104.598L98.7734 31.0848L96.3652 36.7684H91.9697L95.0625 30.0926L89.8691 17.4207H94.4893L97.2012 25.6844ZM83.625 17.0281C84.7823 17.0281 85.8467 17.2337 86.8174 17.6443C87.8067 18.0363 88.6096 18.6241 89.2256 19.408L86.7891 21.8729C86.3597 21.3689 85.8743 21.0137 85.333 20.8084C84.8104 20.6032 84.2969 20.5008 83.793 20.5008C83.3078 20.5008 82.9438 20.5751 82.7012 20.7244C82.4586 20.8551 82.3369 21.0511 82.3369 21.3123C82.3369 21.5923 82.4961 21.8162 82.8135 21.9842C83.1307 22.1521 83.5411 22.3018 84.0449 22.4324C84.5489 22.5631 85.0816 22.7214 85.6416 22.908C86.2016 23.0947 86.7333 23.3475 87.2373 23.6649C87.7412 23.9822 88.1524 24.4108 88.4697 24.952C88.787 25.4746 88.9453 26.1656 88.9453 27.0242C88.9453 28.3495 88.4415 29.4043 87.4336 30.1883C86.4443 30.9723 85.1 31.3641 83.4014 31.3641C82.5988 31.3641 81.8054 31.2618 81.0215 31.0565C80.2562 30.8511 79.5372 30.5616 78.8652 30.1883C78.212 29.7964 77.6522 29.3484 77.1855 28.8445L79.6211 26.3807C80.0691 26.866 80.6018 27.2481 81.2178 27.5281C81.8337 27.7894 82.5055 27.9207 83.2334 27.9207C83.7374 27.9207 84.1205 27.8454 84.3818 27.6961C84.6615 27.5468 84.8018 27.3411 84.8018 27.0799C84.8016 26.7441 84.6327 26.492 84.2969 26.324C83.9796 26.1375 83.5691 25.979 83.0654 25.8484C82.5616 25.6992 82.0295 25.5408 81.4697 25.3729C80.9097 25.2049 80.377 24.9713 79.873 24.6727C79.3691 24.374 78.9589 23.9629 78.6416 23.4402C78.3243 22.8989 78.165 22.2176 78.165 21.3963C78.1651 20.5192 78.3891 19.7633 78.8369 19.1287C79.2849 18.4755 79.92 17.962 80.7412 17.5887C81.5625 17.2154 82.5238 17.0282 83.625 17.0281ZM117.584 10.952C119.152 10.952 120.543 11.2048 121.756 11.7088C122.988 12.2127 124.061 12.9029 124.976 13.7801L122.036 16.7488C121.513 16.1888 120.879 15.7498 120.132 15.4324C119.404 15.1151 118.555 14.9569 117.584 14.9568C116.725 14.9568 115.932 15.1055 115.204 15.4041C114.495 15.6841 113.878 16.0952 113.355 16.6365C112.852 17.1778 112.451 17.8313 112.152 18.5965C111.872 19.3617 111.731 20.2015 111.731 21.116C111.731 22.0494 111.872 22.8995 112.152 23.6649C112.451 24.4299 112.852 25.0836 113.355 25.6248C113.878 26.1661 114.495 26.5859 115.204 26.8846C115.932 27.1832 116.725 27.3328 117.584 27.3328C118.592 27.3328 119.469 27.1736 120.216 26.8563C120.962 26.539 121.606 26.1006 122.147 25.5408L125.116 28.5086C124.164 29.3859 123.072 30.0759 121.84 30.5799C120.627 31.0839 119.217 31.3367 117.612 31.3367C116.138 31.3367 114.765 31.0839 113.496 30.5799C112.245 30.0572 111.143 29.3296 110.191 28.3963C109.258 27.463 108.53 26.3801 108.008 25.1483C107.485 23.8976 107.224 22.5533 107.224 21.116C107.224 19.6788 107.485 18.344 108.008 17.1121C108.53 15.8616 109.258 14.7787 110.191 13.8641C111.125 12.9494 112.217 12.2401 113.468 11.7361C114.737 11.2135 116.109 10.952 117.584 10.952ZM158.021 10.952C159.402 10.952 160.662 11.1952 161.801 11.6805C162.958 12.1658 163.911 12.8288 164.657 13.6688L161.801 16.4959C161.204 15.8801 160.596 15.4234 159.98 15.1248C159.383 14.8262 158.702 14.6766 157.937 14.6766C157.171 14.6766 156.565 14.8262 156.117 15.1248C155.669 15.4048 155.445 15.815 155.445 16.3563C155.445 16.8603 155.613 17.2714 155.949 17.5887C156.285 17.8872 156.724 18.1489 157.265 18.3729C157.825 18.5969 158.432 18.8207 159.085 19.0447C159.757 19.2687 160.42 19.5293 161.073 19.8279C161.727 20.1266 162.324 20.5097 162.865 20.9764C163.425 21.4244 163.873 22.0035 164.209 22.7127C164.545 23.4032 164.713 24.2616 164.713 25.2879C164.713 27.1731 164.041 28.6574 162.697 29.7401C161.353 30.804 159.496 31.3367 157.125 31.3367C155.501 31.3367 154.101 31.0752 152.925 30.5526C151.767 30.0112 150.704 29.1987 149.733 28.116L152.589 25.2879C153.223 26.0157 153.923 26.5853 154.688 26.9959C155.472 27.3879 156.379 27.5848 157.405 27.5848C158.338 27.5847 159.057 27.4158 159.561 27.0799C160.083 26.7439 160.345 26.2778 160.345 25.6805C160.345 25.1391 160.177 24.7001 159.841 24.3641C159.505 24.0282 159.057 23.7385 158.497 23.4959C157.956 23.2533 157.349 23.0207 156.677 22.7967C156.023 22.5727 155.37 22.3208 154.717 22.0408C154.063 21.7422 153.456 21.3774 152.896 20.9481C152.355 20.5002 151.917 19.9497 151.581 19.2967C151.245 18.6247 151.077 17.7842 151.077 16.7762C151.077 15.5629 151.367 14.5177 151.945 13.6404C152.543 12.7632 153.364 12.1001 154.409 11.6522C155.454 11.1856 156.658 10.952 158.021 10.952ZM51.4756 31.0281H47.2764V30.0252C46.9506 30.2994 46.5872 30.5421 46.1836 30.7488C45.4184 31.122 44.5689 31.3084 43.6357 31.3084C42.3478 31.3084 41.1994 31.0006 40.1914 30.3846C39.2022 29.7686 38.4185 28.928 37.8398 27.8641C37.2799 26.8001 37 25.587 37 24.2244C37 22.8619 37.28 21.6487 37.8398 20.5848C38.4185 19.5209 39.2022 18.6803 40.1914 18.0643C41.1994 17.4483 42.3478 17.1405 43.6357 17.1404C44.5691 17.1404 45.4096 17.318 46.1562 17.6727C46.5357 17.8486 46.8808 18.0588 47.1914 18.3035V10.7H51.4756V31.0281ZM60.1758 17.1404C61.0904 17.1404 61.9126 17.318 62.6406 17.6727C63.1307 17.9055 63.5593 18.2 63.9287 18.5535V17.4207H68.1279V31.0281H63.9287V29.9227C63.5707 30.2615 63.151 30.5467 62.668 30.7762C61.9213 31.1308 61.0904 31.3084 60.1758 31.3084C58.9254 31.3083 57.8056 31.0004 56.8164 30.3846C55.8457 29.7686 55.0709 28.9281 54.4922 27.8641C53.9323 26.8001 53.6524 25.587 53.6523 24.2244C53.6523 22.8619 53.9323 21.6487 54.4922 20.5848C55.0709 19.5208 55.8457 18.6803 56.8164 18.0643C57.8056 17.4484 58.9254 17.1405 60.1758 17.1404ZM75.4287 31.0281H71.1445V17.4207H75.4287V31.0281ZM137.657 22.1385L144.616 11.2606H147.78V31.0281H143.385V20.0975L139.101 26.7723H136.188L131.904 20.0604V31.0281H127.536V11.2606H130.673L137.657 22.1385ZM44.4199 21.0047C43.8226 21.0047 43.2909 21.1447 42.8242 21.4246C42.3762 21.7046 42.0114 22.0868 41.7314 22.5721C41.4701 23.0574 41.3398 23.6084 41.3398 24.2244C41.3399 24.8404 41.4701 25.3914 41.7314 25.8768C41.9928 26.362 42.3576 26.7443 42.8242 27.0242C43.2908 27.3041 43.8131 27.4441 44.3916 27.4442C45.0076 27.4442 45.5403 27.3139 45.9883 27.0526C46.4362 26.7726 46.7905 26.3894 47.0518 25.9041C47.313 25.4188 47.4443 24.859 47.4443 24.2244C47.4443 23.5898 47.3131 23.0387 47.0518 22.5721C46.8092 22.087 46.4547 21.7045 45.9883 21.4246C45.5403 21.1446 45.0172 21.0047 44.4199 21.0047ZM61.0723 21.0047C60.475 21.0047 59.9432 21.1447 59.4766 21.4246C59.0286 21.686 58.6638 22.0594 58.3838 22.5447C58.1226 23.03 57.9922 23.59 57.9922 24.2244C57.9922 24.8404 58.1225 25.3914 58.3838 25.8768C58.6451 26.362 59.0099 26.7443 59.4766 27.0242C59.9431 27.3041 60.4655 27.4441 61.0439 27.4442C61.9584 27.4442 62.6959 27.1458 63.2559 26.5486C63.8158 25.9327 64.0967 25.1577 64.0967 24.2244C64.0967 23.5899 63.9654 23.03 63.7041 22.5447C63.4615 22.0595 63.1071 21.6859 62.6406 21.4246C62.1926 21.1446 61.6696 21.0047 61.0723 21.0047ZM73.3008 10.8406C73.9726 10.8407 74.5229 11.0647 74.9521 11.5125C75.3814 11.9605 75.5966 12.5203 75.5967 13.1922C75.5967 13.8455 75.3815 14.4062 74.9521 14.8729C74.5229 15.3205 73.9725 15.5447 73.3008 15.5447C72.6288 15.5447 72.0681 15.3209 71.6201 14.8729C71.1908 14.4062 70.9766 13.8455 70.9766 13.1922C70.9766 12.5204 71.191 11.9604 71.6201 11.5125C72.0681 11.0645 72.6288 10.8406 73.3008 10.8406Z" fill="#1F2937"/>
</svg>
