<svg width="62" height="80" viewBox="0 0 62 80" fill="none" xmlns="http://www.w3.org/2000/svg">
<path fill-rule="evenodd" clip-rule="evenodd" d="M30.9991 0C32.5338 5.74633 37.504 10.875 42.8743 16.1964L44.0136 17.3228C52.501 25.7132 62 35.2446 62 49.4664C61.9643 57.5766 58.6825 65.3426 52.8727 71.065C47.063 76.7873 39.1984 80 31 80C22.8016 80 14.937 76.7873 9.12729 71.065C3.31753 65.3426 0.0357194 57.5766 0 49.4664C0 35.531 9.12002 26.0998 17.4697 17.8328L18.2418 17.069C23.9411 11.4333 29.3803 6.0601 30.9991 0Z" fill="#009DDE"/>
<path d="M31 72C43.7025 72 54 61.7025 54 49C54 36.2975 43.7025 26 31 26C18.2975 26 8 36.2975 8 49C8 61.7025 18.2975 72 31 72Z" fill="white" stroke="black" stroke-opacity="0.2" stroke-width="0.863683"/>
<path d="M31 59.1068C36.5818 59.1068 41.1066 54.5819 41.1066 49.0002C41.1066 43.4184 36.5818 38.8936 31 38.8936C25.4183 38.8936 20.8934 43.4184 20.8934 49.0002C20.8934 54.5819 25.4183 59.1068 31 59.1068Z" fill="#FF9903"/>
</svg>
