<svg width="500" height="260" viewBox="0 0 500 260" fill="none" xmlns="http://www.w3.org/2000/svg">
<g clip-path="url(#clip0_6252_357)">
<g filter="url(#filter0_d_6252_357)">
<path d="M52 38C52 33.5817 55.5817 30 60 30H440C444.418 30 448 33.5817 448 38V260H52V38Z" fill="white"/>
<path d="M448 67H52V38C52 33.5817 55.5817 30 60 30H440C444.418 30 448 33.5817 448 38V67Z" fill="white"/>
<line x1="52" y1="66" x2="448" y2="66" stroke="#F3F4F6" stroke-width="4"/>
</g>
<path d="M448 222H52V66H448V222Z" fill="white"/>
<path d="M93.0303 158.061L80 145.03L93.0303 132" stroke="#D7DDE4" stroke-width="5.21212" stroke-linecap="round" stroke-linejoin="round"/>
<path d="M406.97 130.939L420 143.97L406.97 157" stroke="#D7DDE4" stroke-width="5.21212" stroke-linecap="round" stroke-linejoin="round"/>
<circle cx="234" cy="202" r="4" fill="#D7DDE4"/>
<circle cx="250" cy="202" r="4" fill="#D7DDE4"/>
<circle cx="266" cy="202" r="4" fill="#D7DDE4"/>
</g>
<defs>
<filter id="filter0_d_6252_357" x="14" y="17" width="472" height="306" filterUnits="userSpaceOnUse" color-interpolation-filters="sRGB">
<feFlood flood-opacity="0" result="BackgroundImageFix"/>
<feColorMatrix in="SourceAlpha" type="matrix" values="0 0 0 0 0 0 0 0 0 0 0 0 0 0 0 0 0 0 127 0" result="hardAlpha"/>
<feMorphology radius="12" operator="erode" in="SourceAlpha" result="effect1_dropShadow_6252_357"/>
<feOffset dy="25"/>
<feGaussianBlur stdDeviation="25"/>
<feColorMatrix type="matrix" values="0 0 0 0 0 0 0 0 0 0 0 0 0 0 0 0 0 0 0.25 0"/>
<feBlend mode="normal" in2="BackgroundImageFix" result="effect1_dropShadow_6252_357"/>
<feBlend mode="normal" in="SourceGraphic" in2="effect1_dropShadow_6252_357" result="shape"/>
</filter>
<clipPath id="clip0_6252_357">
<rect width="500" height="260" fill="white"/>
</clipPath>
</defs>
</svg>
