<svg width="112" height="56" viewBox="0 0 112 56" fill="none" xmlns="http://www.w3.org/2000/svg">
<g clip-path="url(#clip0_1787_1168)">
<rect width="112" height="56" fill="#E5E7EB"/>
<g filter="url(#filter0_d_1787_1168)">
<path d="M12 6.792C12 5.8023 12.8023 5 13.792 5H98.208C99.1977 5 100 5.80231 100 6.792V55H12V6.792Z" fill="white"/>
<path d="M100 12H12V6.792C12 5.80231 12.8023 5 13.792 5H98.208C99.1977 5 100 5.80231 100 6.792V12Z" fill="white"/>
<circle cx="15.5" cy="8.5" r="1.5" fill="#FCA5A5"/>
<circle cx="20" cy="8.5" r="1.5" fill="#FBBF24"/>
<circle cx="24.5" cy="8.5" r="1.5" fill="#6EE7B7"/>
</g>
<mask id="path-8-outside-1_1787_1168" maskUnits="userSpaceOnUse" x="12" y="12" width="88" height="36" fill="black">
<rect fill="white" x="12" y="12" width="88" height="36"/>
<path d="M12 13H100V48H12V13Z"/>
</mask>
<path d="M12 13H100V48H12V13Z" fill="#F3F4F6"/>
<path d="M12 14H100V12H12V14Z" fill="#E5E7EB" mask="url(#path-8-outside-1_1787_1168)"/>
<rect x="12.5" y="13.5" width="87" height="34" fill="#D1D5DB" stroke="#9CA3AF"/>
</g>
<rect x="0.5" y="0.5" width="111" height="55" stroke="#D1D5DB"/>
<defs>
<filter id="filter0_d_1787_1168" x="7.968" y="4.328" width="96.064" height="58.064" filterUnits="userSpaceOnUse" color-interpolation-filters="sRGB">
<feFlood flood-opacity="0" result="BackgroundImageFix"/>
<feColorMatrix in="SourceAlpha" type="matrix" values="0 0 0 0 0 0 0 0 0 0 0 0 0 0 0 0 0 0 127 0" result="hardAlpha"/>
<feOffset dy="3.36"/>
<feGaussianBlur stdDeviation="2.016"/>
<feColorMatrix type="matrix" values="0 0 0 0 0 0 0 0 0 0 0 0 0 0 0 0 0 0 0.1 0"/>
<feBlend mode="normal" in2="BackgroundImageFix" result="effect1_dropShadow_1787_1168"/>
<feBlend mode="normal" in="SourceGraphic" in2="effect1_dropShadow_1787_1168" result="shape"/>
</filter>
<clipPath id="clip0_1787_1168">
<rect width="112" height="56" fill="white"/>
</clipPath>
</defs>
</svg>
