<svg width="240" height="240" viewBox="0 0 240 240" fill="none" xmlns="http://www.w3.org/2000/svg">
<rect width="240" height="240" fill="#F3F4F6"/>
<path d="M80.2314 70.0759C104.242 52.6314 136.754 52.6314 160.764 70.0759C184.774 87.5203 194.821 118.441 185.65 146.667C176.479 174.893 150.176 194.003 120.498 194.003C90.8195 194.003 64.5164 174.893 55.3454 146.667C46.1743 118.441 56.2211 87.5203 80.2314 70.0759Z" stroke="black" stroke-width="6"/>
<path d="M120.076 88.1982C120.831 89.3881 121.672 90.5334 122.563 91.6387C124.95 94.6 127.843 97.4468 130.667 100.195V100.196C139.154 108.675 147.62 117.311 147.758 129.982V131.881C147.495 147.118 134.724 159.26 119.399 158.996C104.114 158.733 91.8551 145.954 92.2502 130.696L92.2512 130.657V130.618C92.2513 117.595 100.869 108.806 109.487 100.197L109.486 100.196C112.31 97.4475 115.204 94.6005 117.591 91.6387C118.482 90.5335 119.322 89.388 120.076 88.1982Z" fill="#D8B4FE" stroke="black" stroke-width="6"/>
<rect x="110" y="45" width="21" height="21" rx="10.5" fill="#FCD34D" stroke="black" stroke-width="6"/>
<rect x="46" y="94" width="21" height="21" rx="10.5" fill="#67E8F9" stroke="black" stroke-width="6"/>
<rect x="150" y="170" width="21" height="21" rx="10.5" fill="#F9A8D4" stroke="black" stroke-width="6"/>
<rect x="173" y="94" width="21" height="21" rx="10.5" fill="#BEF264" stroke="black" stroke-width="6"/>
<rect x="69" y="170" width="21" height="21" rx="10.5" fill="#93C5FD" stroke="black" stroke-width="6"/>
</svg>
