<svg width="363" height="92" viewBox="0 0 363 92" fill="none" xmlns="http://www.w3.org/2000/svg">
<path d="M2.02 23V8.34H6.2C7.29333 8.34 8.25333 8.48 9.08 8.76C9.90667 9.02667 10.5467 9.47333 11 10.1C11.4533 10.7267 11.68 11.5733 11.68 12.64C11.68 13.6667 11.4533 14.5133 11 15.18C10.5467 15.8467 9.91333 16.3467 9.1 16.68C8.28667 17 7.34667 17.16 6.28 17.16H3.86V23H2.02ZM3.86 15.66H6.04C7.32 15.66 8.27333 15.42 8.9 14.94C9.52667 14.46 9.84 13.6933 9.84 12.64C9.84 11.5733 9.51333 10.84 8.86 10.44C8.22 10.04 7.25333 9.84 5.96 9.84H3.86V15.66ZM18.1108 23.26C17.2308 23.26 16.4041 23.04 15.6308 22.6C14.8574 22.1467 14.2374 21.5 13.7708 20.66C13.3174 19.8067 13.0908 18.78 13.0908 17.58C13.0908 16.3667 13.3174 15.34 13.7708 14.5C14.2374 13.6467 14.8574 12.9933 15.6308 12.54C16.4041 12.0867 17.2308 11.86 18.1108 11.86C18.7774 11.86 19.4108 11.9867 20.0108 12.24C20.6241 12.4933 21.1641 12.8667 21.6308 13.36C22.0974 13.8533 22.4641 14.4533 22.7308 15.16C22.9974 15.8667 23.1308 16.6733 23.1308 17.58C23.1308 18.78 22.8974 19.8067 22.4308 20.66C21.9641 21.5 21.3508 22.1467 20.5908 22.6C19.8308 23.04 19.0041 23.26 18.1108 23.26ZM18.1108 21.74C18.7374 21.74 19.2841 21.5667 19.7508 21.22C20.2308 20.8733 20.6041 20.3867 20.8708 19.76C21.1374 19.1333 21.2708 18.4067 21.2708 17.58C21.2708 16.74 21.1374 16.0067 20.8708 15.38C20.6041 14.7533 20.2308 14.2667 19.7508 13.92C19.2841 13.5733 18.7374 13.4 18.1108 13.4C17.4841 13.4 16.9308 13.5733 16.4508 13.92C15.9841 14.2667 15.6174 14.7533 15.3508 15.38C15.0974 16.0067 14.9708 16.74 14.9708 17.58C14.9708 18.4067 15.0974 19.1333 15.3508 19.76C15.6174 20.3867 15.9841 20.8733 16.4508 21.22C16.9308 21.5667 17.4841 21.74 18.1108 21.74ZM27.603 23L24.583 12.14H26.443L28.063 18.42C28.183 18.94 28.2896 19.4467 28.383 19.94C28.4896 20.4333 28.5963 20.9333 28.703 21.44H28.803C28.923 20.9333 29.0363 20.4333 29.143 19.94C29.263 19.4467 29.3896 18.94 29.523 18.42L31.223 12.14H33.003L34.703 18.42C34.8363 18.94 34.963 19.4467 35.083 19.94C35.2163 20.4333 35.343 20.9333 35.463 21.44H35.563C35.6696 20.9333 35.7763 20.4333 35.883 19.94C35.9896 19.4467 36.103 18.94 36.223 18.42L37.803 12.14H39.563L36.623 23H34.403L32.843 17.14C32.7096 16.6333 32.583 16.1267 32.463 15.62C32.343 15.1 32.223 14.5667 32.103 14.02H32.003C31.883 14.5667 31.763 15.1 31.643 15.62C31.5363 16.14 31.4096 16.66 31.263 17.18L29.723 23H27.603ZM46.1814 23.26C45.2081 23.26 44.3281 23.0333 43.5414 22.58C42.7547 22.1267 42.1281 21.48 41.6614 20.64C41.2081 19.7867 40.9814 18.7667 40.9814 17.58C40.9814 16.6867 41.1147 15.8933 41.3814 15.2C41.6481 14.4933 42.0081 13.8933 42.4614 13.4C42.9281 12.8933 43.4547 12.5133 44.0414 12.26C44.6281 11.9933 45.2281 11.86 45.8414 11.86C46.7747 11.86 47.5614 12.0667 48.2014 12.48C48.8414 12.8933 49.3281 13.4867 49.6614 14.26C50.0081 15.02 50.1814 15.92 50.1814 16.96C50.1814 17.16 50.1747 17.3467 50.1614 17.52C50.1481 17.6933 50.1281 17.8533 50.1014 18H42.7814C42.8214 18.7733 42.9947 19.4467 43.3014 20.02C43.6214 20.58 44.0414 21.02 44.5614 21.34C45.0814 21.6467 45.6881 21.8 46.3814 21.8C46.9147 21.8 47.3947 21.7267 47.8214 21.58C48.2614 21.42 48.6881 21.2067 49.1014 20.94L49.7414 22.16C49.2747 22.4667 48.7481 22.7267 48.1614 22.94C47.5747 23.1533 46.9147 23.26 46.1814 23.26ZM42.7614 16.7H48.5814C48.5814 15.6067 48.3414 14.7733 47.8614 14.2C47.3947 13.6133 46.7347 13.32 45.8814 13.32C45.3747 13.32 44.8947 13.4533 44.4414 13.72C44.0014 13.9867 43.6281 14.3667 43.3214 14.86C43.0281 15.3533 42.8414 15.9667 42.7614 16.7ZM52.8556 23V12.14H54.3556L54.5356 14.12H54.5756C54.949 13.4267 55.4023 12.88 55.9356 12.48C56.4823 12.0667 57.0556 11.86 57.6556 11.86C57.909 11.86 58.1223 11.88 58.2956 11.92C58.4823 11.9467 58.6556 12.0067 58.8156 12.1L58.4756 13.68C58.289 13.6267 58.1223 13.5867 57.9756 13.56C57.829 13.52 57.6423 13.5 57.4156 13.5C56.9756 13.5 56.5023 13.6933 55.9956 14.08C55.489 14.4533 55.0556 15.1 54.6956 16.02V23H52.8556ZM64.7361 23.26C63.7628 23.26 62.8828 23.0333 62.0961 22.58C61.3094 22.1267 60.6828 21.48 60.2161 20.64C59.7628 19.7867 59.5361 18.7667 59.5361 17.58C59.5361 16.6867 59.6694 15.8933 59.9361 15.2C60.2028 14.4933 60.5628 13.8933 61.0161 13.4C61.4828 12.8933 62.0094 12.5133 62.5961 12.26C63.1828 11.9933 63.7828 11.86 64.3961 11.86C65.3294 11.86 66.1161 12.0667 66.7561 12.48C67.3961 12.8933 67.8828 13.4867 68.2161 14.26C68.5628 15.02 68.7361 15.92 68.7361 16.96C68.7361 17.16 68.7294 17.3467 68.7161 17.52C68.7028 17.6933 68.6828 17.8533 68.6561 18H61.3361C61.3761 18.7733 61.5494 19.4467 61.8561 20.02C62.1761 20.58 62.5961 21.02 63.1161 21.34C63.6361 21.6467 64.2428 21.8 64.9361 21.8C65.4694 21.8 65.9494 21.7267 66.3761 21.58C66.8161 21.42 67.2428 21.2067 67.6561 20.94L68.2961 22.16C67.8294 22.4667 67.3028 22.7267 66.7161 22.94C66.1294 23.1533 65.4694 23.26 64.7361 23.26ZM61.3161 16.7H67.1361C67.1361 15.6067 66.8961 14.7733 66.4161 14.2C65.9494 13.6133 65.2894 13.32 64.4361 13.32C63.9294 13.32 63.4494 13.4533 62.9961 13.72C62.5561 13.9867 62.1828 14.3667 61.8761 14.86C61.5828 15.3533 61.3961 15.9667 61.3161 16.7ZM75.1103 23.26C74.2036 23.26 73.4103 23.04 72.7303 22.6C72.0636 22.16 71.5436 21.52 71.1703 20.68C70.8103 19.8267 70.6303 18.7933 70.6303 17.58C70.6303 16.4067 70.8503 15.3933 71.2903 14.54C71.7303 13.6867 72.3036 13.0267 73.0103 12.56C73.7303 12.0933 74.5036 11.86 75.3303 11.86C75.9703 11.86 76.517 11.9733 76.9703 12.2C77.437 12.4133 77.9103 12.72 78.3903 13.12L78.2903 11.26V7.08H80.1303V23H78.6303L78.4703 21.72H78.4103C77.9836 22.1467 77.4903 22.5133 76.9303 22.82C76.3703 23.1133 75.7636 23.26 75.1103 23.26ZM75.5103 21.72C76.017 21.72 76.497 21.6 76.9503 21.36C77.4036 21.1067 77.8503 20.7333 78.2903 20.24V14.54C77.837 14.1267 77.397 13.8333 76.9703 13.66C76.5436 13.4867 76.1036 13.4 75.6503 13.4C75.077 13.4 74.5503 13.58 74.0703 13.94C73.6036 14.2867 73.2236 14.7733 72.9303 15.4C72.6503 16.0133 72.5103 16.7333 72.5103 17.56C72.5103 18.4267 72.6303 19.1733 72.8703 19.8C73.1103 20.4267 73.4503 20.9067 73.8903 21.24C74.3436 21.56 74.8836 21.72 75.5103 21.72ZM93.0653 23.26C92.572 23.26 92.052 23.14 91.5053 22.9C90.9586 22.66 90.452 22.32 89.9853 21.88H89.9053L89.7453 23H88.2853V7.08H90.1253V11.44L90.0453 13.38C90.5386 12.9533 91.0786 12.5933 91.6653 12.3C92.252 12.0067 92.852 11.86 93.4653 11.86C94.3986 11.86 95.1853 12.0933 95.8253 12.56C96.4653 13.0133 96.952 13.6533 97.2853 14.48C97.6186 15.3067 97.7853 16.28 97.7853 17.4C97.7853 18.6267 97.5586 19.68 97.1053 20.56C96.6653 21.44 96.0853 22.1133 95.3653 22.58C94.6586 23.0333 93.892 23.26 93.0653 23.26ZM92.7653 21.72C93.3653 21.72 93.8986 21.5533 94.3653 21.22C94.8453 20.8733 95.2186 20.38 95.4853 19.74C95.752 19.0867 95.8853 18.3133 95.8853 17.42C95.8853 16.62 95.7853 15.92 95.5853 15.32C95.3986 14.7067 95.0986 14.2333 94.6853 13.9C94.272 13.5667 93.712 13.4 93.0053 13.4C92.552 13.4 92.0853 13.5267 91.6053 13.78C91.1253 14.0333 90.632 14.4 90.1253 14.88V20.6C90.592 21.0133 91.0586 21.3067 91.5253 21.48C92.0053 21.64 92.4186 21.72 92.7653 21.72ZM100.692 27.68C100.439 27.68 100.205 27.66 99.9919 27.62C99.7785 27.58 99.5852 27.5267 99.4119 27.46L99.7719 26C99.8785 26.04 100.005 26.08 100.152 26.12C100.299 26.16 100.452 26.18 100.612 26.18C101.225 26.18 101.725 25.9533 102.112 25.5C102.512 25.06 102.825 24.5067 103.052 23.84L103.292 23.02L98.9319 12.14H100.832L103.032 18.16C103.205 18.64 103.379 19.1467 103.552 19.68C103.739 20.2133 103.925 20.7333 104.112 21.24H104.212C104.359 20.7333 104.505 20.22 104.652 19.7C104.812 19.1667 104.959 18.6533 105.092 18.16L107.052 12.14H108.832L104.752 23.92C104.499 24.6267 104.192 25.26 103.832 25.82C103.472 26.3933 103.039 26.8467 102.532 27.18C102.025 27.5133 101.412 27.68 100.692 27.68Z" fill="#1F2937"/>
<path d="M21.395 46.6866C27.7978 42.0348 36.4677 42.0348 42.8705 46.6866C49.2732 51.3385 51.9523 59.5841 49.5067 67.111C47.0611 74.6379 40.047 79.7339 32.1327 79.7339C24.2185 79.7339 17.2044 74.6379 14.7588 67.111C12.3131 59.5841 14.9923 51.3385 21.395 46.6866Z" stroke="#1F2937" stroke-width="1.6"/>
<path d="M32.0201 51.519C32.2213 51.8365 32.4456 52.1422 32.6832 52.437C33.3197 53.2266 34.0914 53.9855 34.8444 54.7183V54.7192C37.1435 57.016 39.4368 59.356 39.402 62.8237V63.1685C39.3317 67.2315 35.9264 70.4694 31.8395 70.3989C27.8909 70.3308 24.7001 67.1308 24.6002 63.2319V62.8315C24.6003 59.3624 26.8935 57.0202 29.1891 54.7271C29.9446 53.9918 30.7193 53.2295 31.358 52.437C31.5956 52.1423 31.8191 51.8363 32.0201 51.519Z" fill="#D8B4FE" stroke="#1F2937" stroke-width="1.6"/>
<rect x="29.3333" y="40" width="5.6" height="5.6" rx="2.8" fill="#FCD34D" stroke="#1F2937" stroke-width="1.6"/>
<rect x="12.2667" y="53.0669" width="5.6" height="5.6" rx="2.8" fill="#67E8F9" stroke="#1F2937" stroke-width="1.6"/>
<rect x="40" y="73.3335" width="5.6" height="5.6" rx="2.8" fill="#F9A8D4" stroke="#1F2937" stroke-width="1.6"/>
<rect x="46.1334" y="53.0669" width="5.6" height="5.6" rx="2.8" fill="#BEF264" stroke="#1F2937" stroke-width="1.6"/>
<rect x="18.4" y="73.3335" width="5.6" height="5.6" rx="2.8" fill="#93C5FD" stroke="#1F2937" stroke-width="1.6"/>
<path d="M66.24 48.6H70.016V62.872C70.016 64.0027 70.24 64.952 70.688 65.72C71.1573 66.488 71.7867 67.064 72.576 67.448C73.3653 67.8107 74.2613 67.992 75.264 67.992C76.3093 67.992 77.2267 67.8107 78.016 67.448C78.8053 67.064 79.424 66.488 79.872 65.72C80.3413 64.952 80.576 64.0027 80.576 62.872V48.6H84.352V62.776C84.352 64.2053 84.096 65.4533 83.584 66.52C83.0933 67.5653 82.4107 68.44 81.536 69.144C80.6827 69.848 79.712 70.3707 78.624 70.712C77.5573 71.0533 76.4267 71.224 75.232 71.224C73.6533 71.224 72.1813 70.9147 70.816 70.296C69.4507 69.6773 68.3413 68.7493 67.488 67.512C66.656 66.2533 66.24 64.6747 66.24 62.776V48.6ZM88.961 48.6H92.769V71H88.961V48.6ZM108.99 64.856C109.118 65.4533 109.363 65.9973 109.726 66.488C110.11 66.9573 110.611 67.3307 111.23 67.608C111.87 67.8853 112.627 68.024 113.502 68.024C114.846 68.024 115.848 67.7147 116.51 67.096C117.171 66.456 117.502 65.7093 117.502 64.856C117.502 64.152 117.288 63.5653 116.862 63.096C116.456 62.6267 115.88 62.232 115.134 61.912C114.387 61.5707 113.534 61.2507 112.574 60.952C111.699 60.696 110.856 60.4293 110.046 60.152C109.235 59.8533 108.499 59.4907 107.838 59.064C107.198 58.616 106.686 58.0507 106.302 57.368C105.918 56.664 105.736 55.7893 105.758 54.744C105.758 53.3787 106.078 52.2267 106.718 51.288C107.358 50.328 108.254 49.6027 109.406 49.112C110.558 48.6213 111.88 48.376 113.374 48.376C114.632 48.376 115.763 48.5573 116.766 48.92C117.79 49.2613 118.654 49.7733 119.358 50.456C120.062 51.1173 120.584 51.9387 120.926 52.92L117.438 54.072C117.31 53.6027 117.054 53.1867 116.67 52.824C116.286 52.44 115.806 52.1413 115.23 51.928C114.675 51.7147 114.067 51.5973 113.406 51.576C112.68 51.5547 112.03 51.6613 111.454 51.896C110.899 52.1307 110.451 52.472 110.11 52.92C109.768 53.3467 109.598 53.848 109.598 54.424C109.598 55.0853 109.79 55.608 110.174 55.992C110.558 56.3547 111.059 56.664 111.678 56.92C112.318 57.1547 113.022 57.4 113.79 57.656C114.686 57.912 115.571 58.2107 116.446 58.552C117.342 58.872 118.152 59.288 118.878 59.8C119.624 60.2907 120.222 60.92 120.67 61.688C121.118 62.456 121.342 63.416 121.342 64.568C121.342 65.8053 121.054 66.9253 120.478 67.928C119.923 68.9307 119.07 69.7307 117.918 70.328C116.766 70.9253 115.336 71.224 113.63 71.224C112.243 71.224 110.974 71.0213 109.822 70.616C108.691 70.1893 107.742 69.592 106.974 68.824C106.227 68.0347 105.736 67.1067 105.502 66.04L108.99 64.856ZM138.59 71H135.262L135.038 69.4C134.505 69.976 133.865 70.424 133.118 70.744C132.371 71.064 131.582 71.224 130.75 71.224C129.491 71.224 128.403 70.968 127.486 70.456C126.59 69.9227 125.897 69.1547 125.406 68.152C124.915 67.128 124.67 65.8693 124.67 64.376V55H128.286V63.896C128.286 65.2187 128.553 66.232 129.086 66.936C129.619 67.6187 130.441 67.96 131.55 67.96C132.617 67.96 133.449 67.6187 134.046 66.936C134.665 66.232 134.974 65.1973 134.974 63.832V55H138.59V71ZM143.312 55H146.928V71H143.312V55ZM145.136 52.568C144.475 52.568 143.92 52.344 143.472 51.896C143.024 51.448 142.8 50.9147 142.8 50.296C142.8 49.6347 143.024 49.08 143.472 48.632C143.92 48.184 144.475 47.96 145.136 47.96C145.776 47.96 146.32 48.184 146.768 48.632C147.216 49.08 147.44 49.6347 147.44 50.296C147.44 50.9147 147.216 51.448 146.768 51.896C146.32 52.344 145.776 52.568 145.136 52.568ZM152.731 55V50.52H156.411V55H160.155V58.168H156.411V65.272C156.411 66.232 156.592 66.904 156.955 67.288C157.317 67.6507 157.787 67.8533 158.363 67.896C158.96 67.9173 159.557 67.8853 160.155 67.8V70.872C159.237 71.064 158.331 71.1173 157.435 71.032C156.56 70.968 155.771 70.7333 155.067 70.328C154.363 69.9013 153.797 69.2827 153.371 68.472C152.944 67.6613 152.731 66.5947 152.731 65.272V58.168H150.491V55H152.731ZM170.437 71.224C168.837 71.224 167.429 70.872 166.213 70.168C165.018 69.464 164.08 68.4827 163.397 67.224C162.736 65.9653 162.405 64.5147 162.405 62.872C162.405 61.3147 162.736 59.928 163.397 58.712C164.058 57.496 164.976 56.536 166.149 55.832C167.322 55.128 168.656 54.776 170.149 54.776C171.664 54.776 172.997 55.1067 174.149 55.768C175.301 56.4293 176.197 57.3573 176.837 58.552C177.498 59.7253 177.829 61.0907 177.829 62.648C177.829 62.904 177.818 63.1813 177.797 63.48C177.776 63.7573 177.744 64.056 177.701 64.376H166.309C166.416 65.1227 166.65 65.7733 167.013 66.328C167.397 66.8613 167.877 67.2773 168.453 67.576C169.029 67.8747 169.69 68.024 170.437 68.024C171.333 68.024 172.133 67.8427 172.837 67.48C173.562 67.1173 174.064 66.6373 174.341 66.04L177.509 67.096C176.869 68.376 175.92 69.3893 174.661 70.136C173.402 70.8613 171.994 71.224 170.437 71.224ZM173.893 61.432C173.872 60.7707 173.69 60.1733 173.349 59.64C173.008 59.1067 172.56 58.6907 172.005 58.392C171.45 58.072 170.832 57.912 170.149 57.912C169.552 57.912 168.986 58.0613 168.453 58.36C167.92 58.6587 167.461 59.0747 167.077 59.608C166.714 60.12 166.48 60.728 166.373 61.432H173.893Z" fill="#1F2937"/>
</svg>
